Simulation
nRows=49
nColumns=15
endheader
time  TH_x TH_y TH_z SC_y  SC_z  SC_x  AC_y  AC_z  AC_x  GH_y  GH_z  GH_yy  EL_x  PS_y
0.0  0.000000  0.000000  0.000000  -28.35823796971645  -1.2255458500809866  -16.36873451261908  53.426046481474955  20.26719581700596  4.799604445925795  24.61992306615048  5.60737111540601  15.827544410451276  26.73412830220542  0.000000
0.039  0.000000  0.000000  0.000000  -28.358217602703533  -1.0620387570367726  -16.30559862646333  53.13133265863154  20.61088024762522  4.838863318585245  24.206285318207048  5.208510661321714  16.31013718275373  26.445855070953762  0.000000
0.078  0.000000  0.000000  0.000000  -28.240406820244125  -0.9734483556656177  -16.20240423045397  52.99357830806831  20.83971783996425  4.823410577118359  23.978695587219043  4.758002341666077  16.71006371438092  25.852887542545208  0.000000
0.11699999999999999  0.000000  0.000000  0.000000  -28.23674450186548  -0.9227167450132228  -16.060966778647714  52.935458620896206  20.86548906908655  4.753864147669584  24.16455830630664  4.530740345722823  16.54893113680946  25.357637760308183  0.000000
0.156  0.000000  0.000000  0.000000  -28.235434268455347  -0.9221510711333739  -15.890270729965064  52.95186556830774  20.76056250634983  4.660064747299766  24.775411533653507  4.576592702967156  15.766044470327808  24.996359351231103  0.000000
0.195  0.000000  0.000000  0.000000  -28.255673730119675  -0.9557581244251296  -15.684762162907548  53.1171909691477  20.57889085778191  4.557694243488343  25.772025368353052  4.962502906339776  14.399879267334494  24.757065281925065  0.000000
0.23399999999999999  0.000000  0.000000  0.000000  -28.294412322227068  -1.010598601903363  -15.440961279483185  53.40375740226859  20.372286085601445  4.46896943045945  27.083415951620548  5.6944492527409025  12.49846956681377  24.641319254219226  0.000000
0.273  0.000000  0.000000  0.000000  -28.34474795721692  -1.0742259863718664  -15.15857091195824  53.80608941922218  20.176576175839113  4.394350669699042  28.64948683304706  6.7736135920309035  10.129681674525814  24.611216434956816  0.000000
0.312  0.000000  0.000000  0.000000  -28.40254802323921  -1.1385589895570267  -14.829817785901817  54.28843928949021  20.01702496634418  4.330993516602486  30.40664611264686  8.175388928275357  7.362029763459327  24.653755827139264  0.000000
0.351  0.000000  0.000000  0.000000  -28.458931570511602  -1.1956281189132054  -14.449487106504321  54.83129342914766  19.904633955486002  4.272838222252764  32.29405627625186  9.871016680559645  4.266331950710385  24.737132703208694  0.000000
0.39  0.000000  0.000000  0.000000  -28.507540250636374  -1.2413727062862416  -14.008286780509042  55.41048823883095  19.847778722689707  4.210035481980661  34.250491990266006  11.82075764646286  0.9149411307322115  24.849928192107985  0.000000
0.429  0.000000  0.000000  0.000000  -28.542072708247265  -1.2683859450022763  -13.498411774344811  56.010659376423575  19.84652986547185  4.136906937120701  36.21788218623983  13.982962580751689  -2.6179017785800873  24.969414009012556  0.000000
0.46799999999999997  0.000000  0.000000  0.000000  -28.557196021320447  -1.2724561461983344  -12.912999531482775  56.6159830459133  19.90168169383622  4.047556983124735  38.13803074848352  16.312764226407023  -6.257799827713427  25.086083209998137  0.000000
0.507  0.000000  0.000000  0.000000  -28.546582941366154  -1.2455252879510714  -12.248753017485772  57.214805212698394  20.011961807263983  3.9448873987936444  39.95973522687226  18.763650007720898  -9.927079386816358  25.18468671583369  0.000000
0.546  0.000000  0.000000  0.000000  -28.50423956070374  -1.181629702963423  -11.508904540972624  57.797784444715916  20.176547853729716  3.8359526551591654  41.63411765749791  21.28992200197807  -13.554525227044975  25.259486189975306  0.000000
0.585  0.000000  0.000000  0.000000  -28.426831896054164  -1.075773028050214  -10.703567733316943  58.355460001583516  20.390991300989278  3.7344047034271206  43.12763084875932  23.850424148970657  -17.0798817346103  25.298611013860985  0.000000
0.624  0.000000  0.000000  0.000000  -28.317190479845266  -0.92441804917902  -9.847427716342956  58.873825905694446  20.646742048912245  3.6529602835017867  44.428785415339455  26.41293145864884  -20.461089722141274  25.302509241495795  0.000000
0.663  0.000000  0.000000  0.000000  -28.186333584163187  -0.7217391988186631  -8.966184909651261  59.338837592130936  20.940673851462762  3.610225552852319  45.54498405245675  28.951110658398324  -23.671298976411943  25.27422817048986  0.000000
0.702  0.000000  0.000000  0.000000  -28.04806316336893  -0.46826065346790996  -8.090880548399243  59.73952137709287  21.274232983715564  3.625148416547179  46.488413526078325  31.442119053433196  -26.693237718423863  25.22046958389981  0.000000
0.741  0.000000  0.000000  0.000000  -27.916363672557548  -0.16498546813407916  -7.252820435504183  60.06795286428933  21.64918420897809  3.714634159367593  47.276415962888564  33.8675843447458  -29.508513488606397  25.147706184635776  0.000000
0.78  0.000000  0.000000  0.000000  -27.803848586441383  0.18493410424217965  -6.475090866045182  60.32004965436073  22.06497636217409  3.8898600144086806  47.928943879257716  36.20819650689274  -32.09782402124382  25.066967089808653  0.000000
0.819  0.000000  0.000000  0.000000  -27.72039242366287  0.5768411747826376  -5.77264274056186  60.49615671779004  22.516585881712118  4.1543976763854165  48.46343058703251  38.448214235654994  -34.44784457287737  24.98698717120593  0.000000
0.858  0.000000  0.000000  0.000000  -27.67670123221568  1.0044006056416495  -5.151876520058571  60.59956187963243  22.998759133604192  4.5063331307777625  48.89607268712744  40.574045067482686  -36.55003529049792  24.916001125536933  0.000000
0.897  0.000000  0.000000  0.000000  -27.67873209045864  1.4605437040666993  -4.620239376415452  60.634695192764354  23.51684151002113  4.942936906339765  49.23826768945485  42.57558771957333  -38.40638742642616  24.85652243450883  0.000000
0.9359999999999999  0.000000  0.000000  0.000000  -27.725808620588037  1.9380126672384543  -4.172307978914064  60.60773816969467  24.072267687297543  5.45758323195017  49.49844930213213  44.44507052490831  -40.02785495244292  24.80528455602133  0.000000
0.975  0.000000  0.000000  0.000000  -27.81551026102037  2.429369142369307  -3.792236091082542  60.52673227778171  24.660051026050763  6.037097926205592  49.68127987709179  46.18076457301293  -41.43278594471056  24.75855672526108  0.000000
1.014  0.000000  0.000000  0.000000  -27.946482155588  2.930049087790924  -3.4665651864629297  60.39731443511388  25.2762100834859  6.6751667463759965  49.790240429393386  47.78233971777406  -42.63908397176834  24.7119332779924  0.000000
1.053  0.000000  0.000000  0.000000  -28.115686455257432  3.4377750304368044  -3.1830709018641348  60.22361527296648  25.916853642141177  7.36611684696709  49.829490784711915  49.25039422464542  -43.66679289350251  24.661604608930237  0.000000
1.092  0.000000  0.000000  0.000000  -28.31885862083095  3.9488012952699276  -2.938322985496922  60.00855050949678  26.578227665615294  8.108172265621057  49.805837546001406  50.58724179817468  -44.532895545338235  24.603933661480106  0.000000
1.131  0.000000  0.000000  0.000000  -28.551391031623663  4.457704473092444  -2.7288677922985145  59.75676609162245  27.25505796665012  8.894208431080804  49.72874643793543  51.79445747976152  -45.25498699046672  24.53611043199381  0.000000
1.17  0.000000  0.000000  0.000000  -28.810078854602853  4.960578337513572  -2.54926448701303  59.4737903940195  27.935626195079575  9.71729913473917  49.608274428018866  52.872249005138784  -45.84625477022751  24.452515152442356  0.000000
1.209  0.000000  0.000000  0.000000  -29.09056899614088  5.44761622289828  -2.3930059676762014  59.16869543381499  28.610208340180385  10.56055294470522  49.45741387276473  53.82097303168853  -46.31953019337872  24.35049294032587  0.000000
1.248  0.000000  0.000000  0.000000  -29.384286907008974  5.90716964295593  -2.2594906853103387  58.854867842444456  29.270955344976326  11.409270072984574  49.29448240858902  54.638670870539414  -46.68403498403982  24.2251943792751  0.000000
1.287  0.000000  0.000000  0.000000  -29.678203739416908  6.328977020684718  -2.154529707751171  58.555226988694365  29.91259946879492  12.25059056987929  49.153497959518845  55.31870967088827  -46.9455893204448  24.073953866639496  0.000000
1.326  0.000000  0.000000  0.000000  -29.954831428301738  6.704427711907926  -2.0934067344816425  58.304949194733545  30.52586797572009  13.07286079811635  49.084788472572605  55.854363397444125  -47.105943071417016  23.903080237975256  0.000000
1.365  0.000000  0.000000  0.000000  -30.196641928064597  7.031749401624224  -2.1046190288999584  58.12704460663955  31.101468174139463  13.86032378908892  49.1266610903543  56.26077995409725  -47.17022398637018  23.722543793491063  0.000000
1.404  0.000000  0.000000  0.000000  -30.394239367930382  7.299325378739209  -2.2106975188077254  57.99069199348324  31.654691035203903  14.588885759972488  49.238257181980046  56.59313329522037  -47.16560925212627  23.525812580957158  0.000000
1.443  0.000000  0.000000  0.000000  -30.541075843925046  7.4957188178829615  -2.4246315005697414  57.772524393724815  32.23438039909659  15.263140415242724  49.266988855173395  56.956815107608186  -47.13593465978047  23.293786907532656  0.000000
1.482  0.000000  0.000000  0.000000  -30.597439636261385  7.6655364586283525  -2.644000223477807  57.30030817320826  32.803798607403166  15.896867881845983  49.017681411184014  57.495528008199365  -47.12112284421784  23.0062057352502  0.000000
1.521  0.000000  0.000000  0.000000  -30.58155312815088  7.977142846242671  -2.3555312396396113  56.5453275168847  33.02145666581026  16.461482443818625  48.4253129215361  58.25343734251902  -47.13002647380594  22.676260383526074  0.000000
1.56  0.000000  0.000000  0.000000  -30.61807470465424  8.608716926467912  -0.7352035276002321  55.8379263754497  32.31938137815606  16.779081477060696  47.665810415482206  59.10977242104495  -47.14114806011138  22.35395966016765  0.000000
1.599  0.000000  0.000000  0.000000  -30.895075746017824  9.526221290354345  2.5516586485843047  55.85861972152956  30.422444937608912  16.611961289686434  46.94869603897166  59.837164487185774  -47.13534954612043  22.063391059620855  0.000000
1.638  0.000000  0.000000  0.000000  -31.525438658873753  10.454119789259838  7.0867600923656235  56.969424082298154  27.47839986133145  15.770762522894124  46.45189810643677  60.28336855771061  -47.10646331672493  21.80588147552984  0.000000
1.677  0.000000  0.000000  0.000000  -32.34114727997043  11.012259410608994  11.937242950774822  58.80833550516436  23.974674108521924  14.29847492995785  46.26890441377542  60.46241120708365  -47.03730386812651  21.636116173617253  0.000000
1.716  0.000000  0.000000  0.000000  -33.11067722217382  11.049613836956503  16.297919550261135  61.008866637446644  20.467497018324575  12.563649567771973  46.3203838137272  60.26885272768817  -46.94212065898412  21.517273617451323  0.000000
1.755  0.000000  0.000000  0.000000  -33.829907627643266  10.738598268163203  19.496334714412686  63.36794664571626  17.417401281242118  11.079214357636998  46.62012367874618  59.67710824480617  -46.80358792302403  21.41203626300821  0.000000
1.794  0.000000  0.000000  0.000000  -34.37504078063652  10.258923929862943  21.135437806706005  65.35672268711899  15.165595674930131  9.969309322264124  47.29831193569538  58.886428276359965  -46.557576928574655  21.485100844645377  0.000000
1.833  0.000000  0.000000  0.000000  -34.31675831009038  9.766009366163303  21.762502488428776  66.18567138704141  13.586466843243263  8.813575545261637  48.27882776663361  58.05468282223002  -46.245111292442026  21.791655878517645  0.000000
1.8719999999999999  0.000000  0.000000  0.000000  -33.63144326755632  9.345954197073151  22.029858132063147  65.72650547275164  12.417480912516616  7.348235701211362  49.13285619632458  57.28457567540551  -45.9167521656438  22.159627336586222  0.000000
